<?xml version="1.0" standalone="no"?>
<!DOCTYPE svg PUBLIC "-//W3C//DTD SVG 20010904//EN"
 "http://www.w3.org/TR/2001/REC-SVG-20010904/DTD/svg10.dtd">
<svg version="1.0" xmlns="http://www.w3.org/2000/svg"
 width="912.000000pt" height="912.000000pt" viewBox="0 0 912.000000 912.000000"
 preserveAspectRatio="xMidYMid meet">
<metadata>
Created by potrace 1.14, written by Peter Selinger 2001-2017
</metadata>
<g transform="translate(0.000000,912.000000) scale(0.100000,-0.100000)"
fill="#000000" stroke="none">
<path d="M3908 9115 c-3 -3 -40 -10 -118 -21 -19 -3 -42 -7 -50 -10 -8 -3 -26
-8 -40 -10 -126 -24 -388 -145 -524 -242 -84 -60 -235 -203 -303 -287 -107
-133 -229 -383 -257 -529 -2 -11 -9 -43 -16 -71 -24 -102 -31 -290 -17 -428
11 -115 72 -341 99 -371 4 -6 8 -18 8 -28 0 -10 5 -18 10 -18 6 0 10 -5 10
-11 0 -18 44 -109 52 -109 5 0 8 -5 8 -11 0 -10 73 -122 94 -145 6 -7 27 -31
46 -55 60 -73 139 -148 230 -214 48 -35 84 -59 175 -112 43 -26 306 -153 315
-153 6 0 10 -4 10 -10 0 -5 5 -10 10 -10 6 0 120 -54 255 -120 135 -66 248
-120 251 -120 3 0 18 -8 32 -19 15 -10 44 -24 65 -30 20 -7 37 -17 37 -22 0
-5 5 -9 10 -9 33 0 1919 -938 2390 -1189 52 -28 104 -55 116 -60 31 -14 84
-78 105 -129 18 -41 26 -132 16 -172 -16 -64 -79 -150 -138 -188 -95 -63 -212
-55 -404 27 -11 5 -40 17 -65 27 -25 10 -146 69 -270 132 -124 63 -298 152
-387 198 -90 45 -163 80 -163 77 0 -3 -6 0 -14 6 -12 10 -255 134 -266 136 -3
0 -126 61 -275 134 -148 74 -403 199 -565 279 -162 80 -471 231 -685 337 -423
209 -503 246 -550 261 -5 2 -48 17 -95 33 -74 27 -122 40 -211 56 -13 3 -35 7
-48 10 -33 6 -187 19 -231 18 -64 0 -264 -17 -280 -23 -3 -1 -8 -2 -13 -1 -6
1 -47 -8 -119 -25 -10 -2 -26 -6 -36 -8 -10 -2 -35 -11 -55 -20 -20 -8 -37
-12 -37 -8 0 3 -5 1 -12 -6 -7 -7 -18 -12 -25 -12 -18 0 -206 -88 -213 -100
-3 -5 -17 -13 -31 -19 -69 -26 -379 -297 -379 -330 0 -6 -4 -11 -9 -11 -10 0
-115 -151 -153 -221 -26 -47 -96 -215 -104 -249 -2 -11 -7 -30 -10 -42 -3 -13
-7 -30 -9 -38 -2 -8 -4 -15 -5 -15 -1 0 -3 -11 -5 -25 -2 -14 -8 -54 -13 -90
-10 -66 -9 -354 2 -400 3 -14 11 -50 17 -80 5 -30 12 -65 15 -78 2 -12 14 -48
25 -80 45 -125 126 -290 163 -331 9 -10 16 -22 16 -27 0 -5 13 -23 28 -41 15
-18 35 -42 44 -54 32 -41 132 -141 178 -178 25 -20 47 -38 50 -41 25 -25 152
-103 257 -156 70 -37 133 -69 138 -72 6 -4 48 -25 95 -47 47 -22 92 -45 100
-50 8 -5 17 -10 20 -11 7 -1 68 -31 240 -119 85 -43 157 -79 160 -80 7 -1 424
-210 441 -221 8 -5 16 -9 19 -9 3 0 453 -223 1000 -496 721 -360 1004 -506
1028 -530 111 -112 111 -299 0 -405 -36 -34 -101 -71 -139 -80 -90 -19 -177
-1 -299 64 -25 13 -56 30 -70 37 -14 7 -45 23 -70 35 -25 11 -52 25 -60 30 -8
5 -53 28 -100 51 -47 23 -103 51 -125 62 -22 12 -42 21 -45 22 -3 0 -25 12
-50 25 -93 48 -218 110 -224 110 -4 0 -12 5 -19 10 -29 24 -478 240 -542 260
-81 26 -224 34 -300 18 -27 -6 -79 -24 -115 -40 -36 -16 -67 -29 -70 -30 -3 0
-27 -19 -55 -42 -158 -130 -228 -266 -227 -440 0 -163 68 -324 176 -415 10 -9
24 -22 32 -29 22 -21 146 -87 464 -248 162 -82 297 -152 298 -156 2 -5 10 -8
18 -8 8 0 32 -11 54 -25 22 -14 40 -23 40 -20 0 2 17 -5 38 -17 71 -41 428
-216 492 -243 123 -50 274 -93 395 -112 93 -14 375 -8 475 11 14 3 41 7 60 10
77 12 260 63 275 77 5 5 15 9 23 9 30 0 276 134 312 170 3 3 23 18 45 35 41
30 179 165 227 222 73 86 198 288 198 319 0 8 4 14 8 14 5 0 9 6 10 13 1 6 17
57 36 112 37 108 48 159 62 285 8 77 2 269 -10 345 -21 128 -20 122 -29 145
-3 8 -10 38 -17 65 -21 91 -101 263 -172 370 -91 139 -237 285 -383 385 -61
42 -218 129 -355 198 -135 68 -251 128 -257 134 -7 6 -13 8 -13 5 0 -3 -35 12
-77 34 -43 21 -83 39 -90 39 -6 0 -13 3 -15 8 -1 4 -73 41 -158 82 -85 41
-156 78 -158 83 -2 4 -9 7 -15 7 -10 0 -214 95 -257 120 -8 5 -67 34 -130 66
-63 31 -387 191 -719 355 -332 165 -607 299 -612 299 -5 0 -9 5 -9 10 0 6 -4
10 -10 10 -24 0 -524 257 -560 287 -21 18 -51 58 -66 88 -70 145 22 340 188
394 52 17 156 16 186 -2 6 -5 12 -6 12 -3 0 9 143 -57 480 -221 129 -64 305
-149 390 -190 239 -116 549 -267 720 -351 85 -42 157 -77 160 -77 3 -1 79 -38
170 -82 441 -215 596 -291 725 -353 77 -37 242 -118 368 -179 125 -61 231
-111 235 -111 5 0 14 -6 20 -12 7 -7 16 -13 20 -13 4 -1 30 -11 57 -24 28 -12
55 -24 60 -25 6 -2 21 -8 35 -13 52 -22 226 -68 290 -78 226 -34 466 -19 679
42 29 8 59 16 65 18 6 1 20 6 31 10 129 51 173 70 187 83 10 8 18 12 18 8 0
-4 25 9 55 29 31 19 59 35 63 35 4 0 19 10 34 23 15 12 49 38 75 57 108 78
250 233 330 360 44 69 113 199 117 222 2 7 9 27 15 43 18 42 52 154 57 185 2
14 9 48 15 75 28 125 15 439 -25 580 -23 82 -31 107 -48 150 -77 192 -197 366
-362 526 -44 44 -89 82 -98 85 -10 3 -18 9 -18 13 0 8 -71 56 -140 94 -118 67
-894 459 -981 497 -13 5 -31 14 -39 20 -8 5 -154 78 -325 161 -170 83 -415
203 -542 265 -128 63 -236 115 -240 116 -5 1 -14 8 -21 15 -8 7 -17 11 -22 8
-4 -3 -13 2 -20 10 -7 8 -19 15 -27 15 -8 0 -29 10 -46 22 -18 13 -33 22 -35
20 -2 -2 -285 136 -837 409 -170 84 -312 153 -315 154 -18 1 -101 60 -132 92
-48 50 -69 116 -65 201 4 78 28 131 83 186 72 72 170 103 264 83 32 -6 353
-140 485 -202 55 -25 101 -46 102 -46 1 0 52 -25 113 -54 61 -30 112 -55 115
-55 2 0 61 -28 132 -61 298 -143 403 -191 473 -219 75 -30 107 -39 160 -47 96
-12 147 -10 255 11 164 33 334 180 398 344 57 146 50 316 -20 458 -46 93 -172
208 -280 255 -18 8 -33 17 -33 21 0 5 -5 8 -10 8 -11 0 -85 34 -315 145 -234
112 -335 160 -450 215 -60 29 -155 74 -210 100 -280 135 -431 195 -517 205
-14 2 -31 5 -36 9 -5 3 -27 8 -48 11 -21 2 -50 8 -64 11 -26 7 -406 15 -412 9z
m1392 -826 c3 -1 8 -1 13 0 4 0 7 -3 7 -9 0 -5 5 -10 11 -10 6 0 52 -20 102
-44 51 -24 135 -64 188 -90 87 -40 163 -94 164 -114 1 -4 5 -16 11 -27 22 -44
3 -127 -39 -168 -72 -70 -141 -73 -274 -10 -51 24 -96 44 -100 44 -5 0 -12 4
-18 9 -9 7 -166 91 -260 139 -93 47 -116 154 -53 244 21 29 91 71 102 60 3 -4
6 -2 6 4 0 7 92 -11 140 -28z"/>
</g>
</svg>
