<svg width="88" height="114" viewBox="0 0 88 114" fill="none" xmlns="http://www.w3.org/2000/svg">
<g clip-path="url(#clip0_11_6)">
<path d="M87.5432 53.693C86.7271 50.1624 84.8384 47.2314 82.1803 44.7C81.131 43.7008 79.9419 42.8792 78.6594 42.1909C76.7941 41.2138 74.9288 40.2368 73.0634 39.3042C62.6641 34.1749 52.2415 29.0456 41.8422 23.9384C39.767 22.917 37.6685 21.8956 35.5933 20.8519C33.8678 19.986 33.215 18.587 33.588 16.8106C34.0544 14.6124 36.5959 13.3245 38.6012 14.2571C39.9768 14.901 41.4225 15.3895 42.7982 16.0335C46.1325 17.5656 49.4435 19.1644 52.7778 20.7187C53.8737 21.2294 54.9462 21.7623 56.0654 22.1842C59.7262 23.5165 63.6434 22.1398 65.4155 18.9645C66.0684 17.7877 66.3482 16.5442 66.2782 15.2119C66.1616 13.0136 65.2056 11.2594 63.317 9.97154C62.7807 9.59406 62.1745 9.28319 61.5915 8.99452C56.695 6.6408 51.7985 4.30929 46.9019 1.97777C44.1739 0.689889 41.2593 -0.0428731 37.9949 -0.000683799C36.456 -0.0228887 34.8005 0.176955 33.1683 0.598849C23.8416 3.04139 18.4321 11.2128 19.2482 19.7173C19.5513 22.826 20.6472 25.6904 22.4892 28.2884C24.238 30.7309 26.5697 32.5739 29.2977 33.9284C38.9043 38.6581 48.5574 43.3655 58.164 48.1174C62.7107 50.36 67.2109 52.7138 71.711 55.0231C72.5038 55.4228 73.0634 56.0223 73.3898 56.7995C73.9028 58.0207 73.7396 59.1532 72.9935 60.2412C71.9442 61.7734 70.5219 62.2397 68.7032 61.6845C67.001 61.1516 65.3689 60.4411 63.7833 59.6417C61.6848 58.5759 59.6096 57.4434 57.4878 56.3998C51.8684 53.6242 46.2258 50.8708 40.6064 48.0951C36.5026 46.0745 32.3989 44.0539 28.2951 42.0332C27.8754 41.8334 27.4557 41.6335 27.036 41.4559C23.6784 40.0126 20.1576 39.3908 16.4735 39.8793C15.9605 39.9459 15.4242 39.9682 14.9346 40.0792C11.1806 40.8119 7.96286 42.5217 5.30475 45.1419C1.2243 49.1632 -0.454506 54.0039 0.105097 59.5551C0.384899 62.1975 1.2243 64.6622 2.62331 66.9271C4.39539 69.836 6.91361 72.0121 10.0147 73.5664C15.9372 76.5419 21.8597 79.4729 27.7822 82.4262C35.1036 86.0678 42.4018 89.7316 49.7233 93.351C51.1922 94.0837 52.1249 95.9934 51.4487 97.7919C50.8192 99.4573 49.0471 100.434 47.2284 100.123C46.5289 100.012 45.946 99.6794 45.3397 99.3685C40.3499 96.8593 35.3601 94.3502 30.347 91.841C29.8807 91.619 29.391 91.4191 28.9014 91.2637C26.4298 90.5087 24.0981 90.864 22.0929 92.3962C19.598 94.2836 18.7352 96.7927 19.4347 99.746C19.8778 101.611 20.9503 103.077 22.7224 104.054C23.282 104.365 23.8183 104.653 24.3779 104.942C26.8728 106.208 29.391 107.473 31.8859 108.739C33.9844 109.805 36.0829 110.893 38.2048 111.914C40.653 113.091 43.2412 113.846 46.0159 113.979C47.7413 114.068 49.4435 113.868 51.1223 113.557C54.9696 112.825 58.2339 111.137 60.892 108.406C65.1357 104.076 66.6979 98.88 65.7419 93.0623C64.8093 87.4445 61.6149 83.1811 56.4152 80.3167C55.5058 79.8282 54.5965 79.3619 53.6638 78.8956C46.0859 75.1651 38.5079 71.4569 30.9299 67.7043C26.1267 65.3284 21.3467 62.9302 16.5668 60.5543C16.2637 60.3989 15.9372 60.2212 15.6574 60.0214C14.4683 59.1776 13.9786 57.8453 14.3517 56.4908C15.0279 54.0261 17.4761 52.9158 19.8778 53.9817C20.8804 54.4258 21.9063 54.8921 22.8856 55.3806C35.3834 61.4647 47.8813 67.5489 60.3791 73.6108C64.5761 75.6537 68.9597 76.2088 73.5531 75.1652C83.7425 72.878 89.7583 63.2855 87.5432 53.693ZM51.4254 10.0382C51.6353 9.99374 51.8684 9.99374 52.0783 10.0382C52.5679 10.1714 53.0809 10.3046 53.5472 10.5267C54.9929 11.1928 56.4385 11.9034 57.8842 12.5917C58.1406 12.7027 58.3738 12.8582 58.607 12.9914C59.6096 13.6798 59.8661 14.8344 59.2599 15.8114C58.6536 16.7884 57.4411 17.1659 56.3453 16.6774C55.3426 16.2333 54.3866 15.7448 53.4073 15.2563C52.5213 14.8122 51.6586 14.3237 50.7725 13.8796C50.0264 13.5021 49.7233 12.8804 49.7 12.2586C49.7 11.104 50.3995 10.2602 51.4254 10.0382Z" fill="#B16FF8"/>
</g>
<defs>
<clipPath id="clip0_11_6">
<rect width="88" height="114" fill="white"/>
</clipPath>
</defs>
</svg>
